<svg width="500" height="500" xmlns="http://www.w3.org/2000/svg">
    <g>
        <g id="svg_1">
            <g id="svg_2">
                <g id="svg_3">
                    <path id="svg_4"
                          d="m271.067,255.84l237.76,-237.76c4.053,-4.267 3.947,-10.987 -0.213,-15.04c-4.16,-3.947 -10.667,-3.947 -14.827,0l-245.334,245.333c-4.16,4.16 -4.16,10.88 0,15.04l245.333,245.333c4.267,4.053 10.987,3.947 15.04,-0.213c3.947,-4.16 3.947,-10.667 0,-14.827l-237.759,-237.866z"/>
                    <path id="svg_5"
                          d="m25.733,255.84l237.76,-237.76c4.053,-4.267 3.947,-10.987 -0.213,-15.04c-4.16,-3.947 -10.667,-3.947 -14.827,0l-245.333,245.227c-4.16,4.16 -4.16,10.88 0,15.04l245.333,245.333c4.267,4.053 10.987,3.947 15.04,-0.213c3.947,-4.16 3.947,-10.667 0,-14.827l-237.76,-237.76z"/>
                </g>
            </g>
        </g>
        <g id="svg_6"/>
        <g id="svg_7"/>
        <g id="svg_8"/>
        <g id="svg_9"/>
        <g id="svg_10"/>
        <g id="svg_11"/>
        <g id="svg_12"/>
        <g id="svg_13"/>
        <g id="svg_14"/>
        <g id="svg_15"/>
        <g id="svg_16"/>
        <g id="svg_17"/>
        <g id="svg_18"/>
        <g id="svg_19"/>
        <g id="svg_20"/>
    </g>
</svg>